<svg xmlns="http://www.w3.org/2000/svg" viewBox="0 0 256 256" role="img" aria-labelledby="title desc">
  <title id="title">Concept2 Logbook icon</title>
  <desc id="desc">A stylized training logbook with rowing handle and performance line.</desc>
  <defs>
    <linearGradient id="bg" x1="42" y1="30" x2="214" y2="226" gradientUnits="userSpaceOnUse">
      <stop offset="0" stop-color="#f6f7f2"/>
      <stop offset="1" stop-color="#dfe7df"/>
    </linearGradient>
    <linearGradient id="accent" x1="66" y1="68" x2="194" y2="184" gradientUnits="userSpaceOnUse">
      <stop offset="0" stop-color="#e53935"/>
      <stop offset="1" stop-color="#ff8a3d"/>
    </linearGradient>
    <filter id="shadow" x="-20%" y="-20%" width="140%" height="140%">
      <feDropShadow dx="0" dy="10" stdDeviation="12" flood-color="#14342d" flood-opacity="0.18"/>
    </filter>
  </defs>
  <rect width="256" height="256" rx="54" fill="#153f37"/>
  <circle cx="128" cy="128" r="94" fill="url(#bg)" filter="url(#shadow)"/>
  <path d="M86 69h68c17 0 30 13 30 30v88H98c-23 0-42-19-42-42V99c0-17 13-30 30-30Z" fill="#ffffff"/>
  <path d="M100 69h54c17 0 30 13 30 30v88h-84V69Z" fill="#edf2ec"/>
  <path d="M89 69h13v118H89c-18 0-33-15-33-33V102c0-18 15-33 33-33Z" fill="url(#accent)"/>
  <path d="M118 103h42M118 128h42M118 153h30" fill="none" stroke="#153f37" stroke-linecap="round" stroke-width="10"/>
  <path d="M70 191c25-25 51-25 77 0 13 13 26 19 39 19" fill="none" stroke="#153f37" stroke-linecap="round" stroke-width="13"/>
  <path d="M71 191c25-25 51-25 77 0" fill="none" stroke="#e53935" stroke-linecap="round" stroke-width="7"/>
  <path d="M58 202h140" fill="none" stroke="#153f37" stroke-linecap="round" stroke-width="12"/>
</svg>
